# xmcd CD database file
#
# Track frame offsets:
#	183
#	13145
#	22933
#	35140
#	48423
#	59333
#	71603
#	81713
#	95613
#	111128
#	123645
#	134755
#	146775
#	161975
#	176803
#
# Disc length: 2532 seconds
#
# Revision: 5
# Processed by: cddbd v1.5.2PL0 Copyright (c) Steve Scherf et al.
# Submitted via: CDex 1.40Beta9
#
DISCID=eb09e20f
DTITLE=Blues Evergreens - Blues Evergreens CD 3 of 4
DYEAR=1991
DGENRE=Blues
TTITLE0=B-B.King - The Woman I Love
TTITLE1=J.L.Hooker - I Wanna Walk
TTITLE2=Elmore James - Mean Mistreatin' Mama
TTITLE3=Howlin' Wolf - Tell Me
TTITLE4=Big Joe Williams - Sinking Blues
TTITLE5=Little Walter - Last Night
TTITLE6=J.L.Hooker - Dimples
TTITLE7=Howlin' Wolf - Smokestack Lightnin'
TTITLE8=B.B.King - Walkin' And Cryin'
TTITLE9=Elmore James - Standing At The Crossroads
TTITLE10=Sonny Boy Williamson - Got To Move
TTITLE11=Muddy Waters - Long Distance Call
TTITLE12=Howlin' Wolf - Goin' Down Slow
TTITLE13=B.B.King - How Blue You Can Get
TTITLE14=Leadbelly - Tell Me Baby
EXTD=YEAR: 1991 ID3G: 0
EXTT0=
EXTT1=
EXTT2=
EXTT3=
EXTT4=
EXTT5=
EXTT6=
EXTT7=
EXTT8=
EXTT9=
EXTT10=
EXTT11=
EXTT12=
EXTT13=
EXTT14=
PLAYORDER=
